<svg id="14cecb9b-fa6a-49a1-9e80-b164ffe80114" data-name="Layer 6" xmlns="http://www.w3.org/2000/svg" viewBox="0 0 1485.402 310.073">
  <title>logo</title>
  <g>
    <g>
      <circle cx="241.415" cy="43.732" r="18.074" style="fill: #fff"/>
      <circle cx="185.595" cy="54.424" r="23.179" style="fill: #fff"/>
      <g>
        <path d="M194.155,77.328A16.39,16.39,0,1,0,188.7,45.482a7.287,7.287,0,1,1-9.954,9.858A16.4,16.4,0,0,0,194.155,77.328Z" transform="translate(-8.56 -6.514)" style="fill: #3b424c"/>
        <path d="M257.188,287.463c-0.947-1.688-1.835-3.3-2.682-4.838-9.727-17.654-15.077-27.384-40.141-26.154-4.9.237-7.326-.242-8.432-0.612,0.918-1.2,3.348-3.493,8.671-6.077,9.931-4.117,16.8-10.911,20.423-20.2,8.53-21.871-4.276-49.764-4.825-50.94l-5.48-11.921L222.361,179.5c-0.2.741-2.935,9.777-18.578,13.161-19.987,4.333-33.21,13.019-39.3,25.817-5.321,11.18-3.9,22.88-1.8,30.691-11.313-4.506-20.01-11.136-25.924-19.828-8.626-12.677-9.232-26.586-8.221-36.022,2.595-24.229,18.555-45.482,34.156-45.482,7.489,0,12.663,1.323,18.655,2.854a106.567,106.567,0,0,0,19.8,3.556c34.085,2.3,55.267-10.323,67.032-21.32,16.825-15.727,22.933-35.44,22.933-44.853,0-6.635-8.749-19.55-21.047-31.543a21.038,21.038,0,0,0-32.037-23.6c-17.846-9.641-41.249-17.105-68.49-13.693l-0.161.023a140.784,140.784,0,0,0-41.973,14.048c-8.09-7.015-34-28.057-52.26-26.733a17.975,17.975,0,0,0-13.2,6.7c-2.032,2.5-2.441,5.157-2.8,7.5a15.655,15.655,0,0,1-1,4.053A7.208,7.208,0,0,1,56.3,27.011a13.8,13.8,0,0,0-4.366,6.507c-0.615,2.109-.4,4.644-0.177,7.327a22.655,22.655,0,0,1,.134,4.162,25.714,25.714,0,0,1-2.169,5.358c-1.317,2.71-2.81,5.782-3.188,9.107a15.017,15.017,0,0,0,1.337,7.022,9.888,9.888,0,0,1,.857,3.117,12.1,12.1,0,0,1-1.289,3.536A16.576,16.576,0,0,0,45.383,80.2c0,3.018,1.613,5.568,2.908,7.617a11.7,11.7,0,0,1,1.527,2.9,10.982,10.982,0,0,1-1.152,4.1c-0.951,2.348-2.03,5.01-1.521,8,0.625,3.749,3.073,6.9,5.041,9.427a19.526,19.526,0,0,1,2.316,3.364l0.488,1.3c0.242,0.646.476,1.268,0.708,1.873-41.721,6.567-43.834,8.751-45.269,10.237-1.334,1.383-2.645,3.993-1.31,8.572,3.394,11.645,22.786,33.011,41.59,37.537a5.724,5.724,0,0,0,1.471.206,11.039,11.039,0,0,0,3.326-.657C58.227,202,68.481,225.847,85.52,243.646c20.106,21,48.327,32.343,80.094,32.342,1.081,0,2.168-.018,3.258-0.044,0.525,2.753,5.543,26,26.713,36.108a48.446,48.446,0,0,0,21.14,4.535c14.729,0,31.966-5.457,51.513-16.338l12.55-6.986-14.339-.812C266.381,292.447,259.7,291.947,257.188,287.463ZM249.975,32.172a18.069,18.069,0,0,1,17.637,22.017q-1.322-1.229-2.688-2.435-1.045-.923-2.189-1.892a12.733,12.733,0,0,0-16.175-11.92q-2.681-1.7-5.579-3.37A17.983,17.983,0,0,1,249.975,32.172Zm-55.82,5.587a23.179,23.179,0,1,1-23.179,23.179A23.179,23.179,0,0,1,194.155,37.76Z" transform="translate(-8.56 -6.514)" style="fill: #3b424c"/>
      </g>
      <path d="M59.991,118.342a139.988,139.988,0,0,1,10.02-27.03A128.561,128.561,0,0,1,97.71,54.17a135.075,135.075,0,0,1,25.767-18.737C112.377,26.01,78.44-.465,65.18,15.9c-2.357,2.9-1.414,6.528-3.228,10.626-1.523,3.409-4.86,4.134-6.02,8.16-0.762,2.611.617,8.378,0.036,11.17-0.943,4.533-4.751,9.285-5.3,14.072-0.363,3.3,2.394,6.6,2.212,9.9C52.7,73.309,49.549,76.791,49.549,80.2c0,3.482,4.207,6.927,4.425,10.227,0.29,4.134-3.337,8.088-2.72,11.714,0.762,4.57,5.839,8.632,7.145,12C58.984,115.7,59.5,117.1,59.991,118.342Z" transform="translate(-8.56 -6.514)" style="fill: #3fc3f0"/>
      <path d="M120.259,113.783S18.137,127.035,13.426,131.918c-4.932,5.114,16.864,34.019,38.262,39.169,6.635,1.607,75.832-42.587,75.832-42.587A40.56,40.56,0,0,1,120.259,113.783Z" transform="translate(-8.56 -6.514)" style="fill: #3fc3f0"/>
      <path d="M253.555,289.5c-11.533-20.564-14.507-30.066-38.988-28.869-19.367.943-15.341-8.051-1.668-14.652,37.029-15.232,13.528-65.572,13.528-65.572s-2.648,12.186-21.761,16.32c-46.35,10.049-41.288,41.425-37.1,54.2,2.849,0.925,5.834,1.739,8.974,2.422a11.435,11.435,0,0,1,9.36,12.035,9.854,9.854,0,0,1-3.152,7.187c-3.321,3.051-8.1,3.246-9.653,3.222,1.642,7.428,16.774,63.312,93.117,20.816C266.212,296.609,257.254,296.1,253.555,289.5Z" transform="translate(-8.56 -6.514)" style="fill: #3fc3f0"/>
      <g>
        <path d="M92.355,183.438a7.621,7.621,0,0,1-7.768,4.031,7.493,7.493,0,0,0,13.153,2.868A7.622,7.622,0,0,1,92.355,183.438Z" transform="translate(-8.56 -6.514)" style="fill: #95c83e"/>
        <path d="M170.058,23.369C129.679,30.035,80.92,57.912,64.543,117.422c1.128-.171,2.271-0.344,3.448-0.521,25.862-3.885,51.477-7.215,51.733-7.248l3.733-.484,0.858,3.666a36.251,36.251,0,0,0,6.555,13.189l2.653,3.586-3.759,2.4c-0.174.111-17.559,11.206-35.531,21.96-18.583,11.119-28.824,16.563-34.726,19.154,5.707,63.353,52.59,101.849,113.381,98.5,0,0,8.668.508,8.849-6.347a7.368,7.368,0,0,0-5.984-7.834c-82.69-17.916-50.158-113.772-13.056-113.772,15.126,0,21.753,5.126,38.734,6.419,64.486,4.355,85.519-45.588,85.519-62.018C286.948,76.029,237.516,14.918,170.058,23.369ZM107.809,185.208c-0.841,3.858-4.875,6.257-9.051,5.42a7.923,7.923,0,0,1-15.218-3.318c-4.145-.977-6.814-4.838-5.973-8.7a6.713,6.713,0,0,1,.518-1.487c0.155,3.854,2.555,7.169,6.092,7.941s7.1-1.243,8.845-4.684c0.155,3.855,2.555,7.169,6.092,7.941s7.1-1.244,8.845-4.684A6.71,6.71,0,0,1,107.809,185.208Zm25.9-70.744a35.743,35.743,0,0,1,1.338-29,46.426,46.426,0,0,0,19.238,49.472A35.743,35.743,0,0,1,133.71,114.464Zm9.733-3.069a27.273,27.273,0,0,1,1.021-22.125,35.424,35.424,0,0,0,14.679,37.748A27.273,27.273,0,0,1,143.443,111.395ZM168,60.938a26.154,26.154,0,1,1,26.154,26.154A26.183,26.183,0,0,1,168,60.938Zm73.854,74.389c-15.558,1.557-32.9-5.427-41.249-16.6a2.848,2.848,0,0,1,.552-4.121,3.053,3.053,0,0,1,1.864-.694,2.734,2.734,0,0,1,2.114,1.08c15.783,18.592,41.5,20.531,61.439,4.746C262,128.663,253.261,134.187,241.855,135.328Z" transform="translate(-8.56 -6.514)" style="fill: #95c83e"/>
      </g>
    </g>
    <g>
      <path d="M367.071,271.307H347.7V215.336q0-10.421-3.939-15.552t-12.31-5.13q-11.162,0-16.373,7.264t-5.211,24.169v45.22H290.583V180.539h15.1l2.708,11.9h0.985a25.142,25.142,0,0,1,10.956-10.012,35.343,35.343,0,0,1,15.8-3.529q20.927,0,27.739,14.28h1.313a27.673,27.673,0,0,1,11.325-10.5,35.956,35.956,0,0,1,16.742-3.775q16.25,0,23.677,8.207t7.427,25.031v59.171H405.069V215.336q0-10.421-3.98-15.552t-12.351-5.13q-11.245,0-16.455,7.018t-5.211,21.543v48.092Z" transform="translate(-8.56 -6.514)" style="fill: #95c83e"/>
      <path d="M435.569,156.493q0-5.171,2.831-7.961t8.084-2.79q5.087,0,7.919,2.79t2.832,7.961a10.478,10.478,0,0,1-2.832,7.755q-2.832,2.832-7.919,2.832-5.253,0-8.084-2.832A10.479,10.479,0,0,1,435.569,156.493ZM456,271.307H436.718V180.539H456v90.768Z" transform="translate(-8.56 -6.514)" style="fill: #95c83e"/>
      <path d="M548.792,271.307H529.424V215.5q0-10.5-4.227-15.675t-13.418-5.171q-12.229,0-17.891,7.223t-5.663,24.21v45.22H468.939V180.539h15.1l2.708,11.9h0.985a26.851,26.851,0,0,1,11.654-10.012,39.067,39.067,0,0,1,16.742-3.529q32.663,0,32.664,33.238v59.171Z" transform="translate(-8.56 -6.514)" style="fill: #95c83e"/>
      <path d="M642.858,271.307H623.49V215.5q0-10.5-4.227-15.675t-13.418-5.171q-12.229,0-17.891,7.223t-5.663,24.21v45.22H563.006V180.539h15.1l2.708,11.9H581.8a26.851,26.851,0,0,1,11.654-10.012,39.067,39.067,0,0,1,16.742-3.529q32.663,0,32.664,33.238v59.171Z" transform="translate(-8.56 -6.514)" style="fill: #95c83e"/>
      <path d="M738.1,225.759q0,22.241-11.407,34.715t-31.761,12.475a43.51,43.51,0,0,1-22.486-5.745,37.9,37.9,0,0,1-15.019-16.5q-5.253-10.749-5.252-24.948,0-22.075,11.325-34.469T695.427,178.9q19.7,0,31.186,12.68T738.1,225.759Zm-66.065,0q0,31.433,23.226,31.432,22.978,0,22.979-31.432,0-31.1-23.143-31.1-12.147,0-17.6,8.043T672.037,225.759Z" transform="translate(-8.56 -6.514)" style="fill: #95c83e"/>
      <path d="M826.276,271.307L814.54,228.959q-2.134-6.728-7.714-31.268h-0.738q-4.761,22.159-7.551,31.432l-12.064,42.184H765.135l-25.441-90.768h19.7l11.571,44.728q3.94,16.578,5.581,28.4h0.492q0.82-5.99,2.5-13.747t2.914-11.612l13.788-47.764h21.174L830.79,228.3q1.23,4.022,3.077,12.311a94.654,94.654,0,0,1,2.175,12.885H836.7a251.836,251.836,0,0,1,5.744-28.231l11.736-44.728h19.368l-25.605,90.768H826.276Z" transform="translate(-8.56 -6.514)" style="fill: #95c83e"/>
      <path d="M920.429,180.375q18.712,0,28.19,11.776t9.479,34.428q0,22.242-9.972,34.3T920.1,272.948a36.845,36.845,0,0,1-17.152-3.939,30.038,30.038,0,0,1-12.063-11.161h-0.739l-2.3,13.459H882.76v-127.7h8.125V175.7q0,7.222-.328,13.295l-0.247,6.976h0.575a32.562,32.562,0,0,1,12.269-11.817Q910.334,180.375,920.429,180.375Zm-0.164,7.386q-15.757,0-22.568,9.027t-6.812,29.791v1.4q0,20.188,7.1,28.97t22.117,8.781q14.607,0,21.994-10.217t7.387-29.094Q949.481,187.761,920.265,187.761Z" transform="translate(-8.56 -6.514)" style="fill: #3fc3f0"/>
      <path d="M1044.613,226.579q0,21.832-10.587,34.1t-29.216,12.27a37.829,37.829,0,0,1-20.682-5.663,36.213,36.213,0,0,1-13.705-16.249q-4.761-10.588-4.76-24.457,0-21.829,10.586-34.017t29.053-12.187q18.382,0,28.847,12.352T1044.613,226.579Zm-70.415,0q0,18.385,8.084,28.684t22.856,10.3q14.771,0,22.855-10.3t8.084-28.684q0-18.464-8.166-28.642t-22.938-10.177q-14.773,0-22.774,10.136T974.2,226.579Z" transform="translate(-8.56 -6.514)" style="fill: #3fc3f0"/>
      <path d="M1111.648,271.307L1109.6,257.19h-0.656q-6.731,8.618-13.829,12.188a36.938,36.938,0,0,1-16.782,3.57q-13.132,0-20.436-6.729t-7.3-18.63a22.986,22.986,0,0,1,10.874-20.271q10.874-7.222,31.473-7.633l16.988-.492v-5.909q0-12.719-5.17-19.2t-16.66-6.483q-12.393,0-25.687,6.894l-3.036-7.058a67.977,67.977,0,0,1,29.052-6.894q14.689,0,21.953,7.632t7.264,23.8v59.335h-5.991Zm-32.827-5.745q14.279,0,22.527-8.165T1109.6,234.7v-8.781l-15.593.656q-18.794.9-26.8,5.868t-8,15.47q0,8.372,5.129,13.008T1078.821,265.562Z" transform="translate(-8.56 -6.514)" style="fill: #3fc3f0"/>
      <path d="M1166.879,180.375a69.854,69.854,0,0,1,12.146,1.148l-1.56,7.8a47.564,47.564,0,0,0-11.571-1.4q-11.408,0-18.712,9.685t-7.3,24.456v49.241h-8.125V182.1h6.894l0.82,16.085h0.575q5.5-9.848,11.735-13.828A27.49,27.49,0,0,1,1166.879,180.375Z" transform="translate(-8.56 -6.514)" style="fill: #3fc3f0"/>
      <path d="M1213.506,180.375a37.045,37.045,0,0,1,16.742,3.529q7.058,3.529,12.639,12.063h0.492q-0.492-10.34-.492-20.271V143.608h8.042v127.7h-5.334l-2.052-13.623h-0.656q-10.178,15.264-29.217,15.265-18.466,0-28.231-11.49t-9.766-33.483q0-23.143,9.684-35.371T1213.506,180.375Zm0,7.386q-14.609,0-21.953,10.259t-7.346,29.791q0,37.916,29.463,37.915,15.1,0,22.158-8.781t7.059-28.97v-1.4q0-20.681-6.936-29.749T1213.506,187.761Z" transform="translate(-8.56 -6.514)" style="fill: #3fc3f0"/>
      <path d="M1264.317,264.905q0-8.042,6.565-8.043,6.728,0,6.729,8.043t-6.729,8.043Q1264.316,272.948,1264.317,264.905Z" transform="translate(-8.56 -6.514)" style="fill: #3fc3f0"/>
      <path d="M1359.671,226.579q0,21.832-10.587,34.1t-29.216,12.27a37.829,37.829,0,0,1-20.682-5.663,36.213,36.213,0,0,1-13.705-16.249q-4.761-10.588-4.76-24.457,0-21.829,10.586-34.017t29.053-12.187q18.382,0,28.847,12.352T1359.671,226.579Zm-70.415,0q0,18.385,8.084,28.684t22.856,10.3q14.771,0,22.855-10.3t8.084-28.684q0-18.464-8.166-28.642t-22.937-10.177q-14.773,0-22.774,10.136T1289.256,226.579Z" transform="translate(-8.56 -6.514)" style="fill: #3fc3f0"/>
      <path d="M1406.69,180.375a69.854,69.854,0,0,1,12.146,1.148l-1.56,7.8a47.564,47.564,0,0,0-11.571-1.4q-11.408,0-18.712,9.685t-7.3,24.456v49.241h-8.125V182.1h6.894l0.82,16.085h0.575q5.5-9.848,11.735-13.828A27.49,27.49,0,0,1,1406.69,180.375Z" transform="translate(-8.56 -6.514)" style="fill: #3fc3f0"/>
      <path d="M1493.962,182.1v5.662L1475.5,188.91a31.513,31.513,0,0,1,7.386,20.188q0,12.886-8.576,20.887t-23.021,8a50.045,50.045,0,0,1-8.535-.493,21.233,21.233,0,0,0-7.386,5.991,12.1,12.1,0,0,0-2.544,7.3,6.757,6.757,0,0,0,3.241,6.237q3.242,1.97,10.874,1.97h15.594q14.525,0,22.24,5.868t7.714,17.357q0,14.115-11.448,21.789t-32.622,7.674q-16.825,0-26.057-6.483t-9.232-18.056a21.422,21.422,0,0,1,5.7-15.265q5.7-6.072,15.471-8.289a15.7,15.7,0,0,1-6.442-4.883,11.605,11.605,0,0,1-2.422-7.263q0-8.944,11.408-15.757a25.422,25.422,0,0,1-12.146-10.054,28.688,28.688,0,0,1-4.35-15.716q0-13.377,8.494-21.461t22.938-8.084q8.78,0,13.623,1.724h28.56Zm-72.22,104.309q0,18.382,27.328,18.384,35.125,0,35.126-22.405,0-8.043-5.5-11.653t-17.809-3.611H1446.28Q1421.741,267.121,1421.742,286.407Zm6.812-76.487q0,10.34,6.278,16.044t16.783,5.7q11.159,0,17.11-5.663t5.95-16.414q0-11.405-6.114-17.111t-17.111-5.7q-10.668,0-16.782,6.114T1428.554,209.92Z" transform="translate(-8.56 -6.514)" style="fill: #3fc3f0"/>
    </g>
  </g>
</svg>
